HIERARCHY
ROOT hips
{
  OFFSET 0 9.313263304106702 1.2146308026317778
  CHANNELS 6 Xposition Yposition Zposition Yrotation Xrotation Zrotation
  JOINT spine
  {
    OFFSET -6.402521e-31 0.5173342420023708 0
    CHANNELS 3 Yrotation Xrotation Zrotation
    JOINT chest
    {
      OFFSET 0 1.130544299341115 0
      CHANNELS 3 Yrotation Xrotation Zrotation
      JOINT upperChest
      {
        OFFSET 0 1.0863555061129995 0
        CHANNELS 3 Yrotation Xrotation Zrotation
        JOINT neck
        {
          OFFSET 0 1.3773706506454462 0
          CHANNELS 3 Yrotation Xrotation Zrotation
          JOINT head
          {
            OFFSET 0 0.7374408940073979 0
            CHANNELS 3 Yrotation Xrotation Zrotation
            JOINT leftEye
            {
              OFFSET 0.25066580148932727 0.6408406698778757 0.15963719178883284
              CHANNELS 3 Yrotation Xrotation Zrotation
              End Site
              {
                OFFSET 0.25066580148932727 0.6408406698778757 0.15963719178883284
              }
            }
            JOINT rightEye
            {
              OFFSET -0.25066576739704244 0.6408406384191823 0.15963727561643756
              CHANNELS 3 Yrotation Xrotation Zrotation
              End Site
              {
                OFFSET -0.25066576739704244 0.6408406384191823 0.15963727561643756
              }
            }
          }
        }
        JOINT leftShoulder
        {
          OFFSET 0.3761817444281191 1.0539491987447769 0
          CHANNELS 3 Yrotation Xrotation Zrotation
          JOINT leftUpperArm
          {
            OFFSET 0.8702844380000002 0 0
            CHANNELS 3 Yrotation Xrotation Zrotation
            JOINT leftLowerArm
            {
              OFFSET 2.198527310000323 0 0
              CHANNELS 3 Yrotation Xrotation Zrotation
              JOINT leftHand
              {
                OFFSET 2.146852313968281 0 0
                CHANNELS 3 Yrotation Xrotation Zrotation
                JOINT leftIndexProximal
                {
                  OFFSET 0.6585177834681599 0.07380250427007962 0.18382213159631788
                  CHANNELS 3 Yrotation Xrotation Zrotation
                  JOINT leftIndexIntermediate
                  {
                    OFFSET 0.3323021288626682 -0.009606893929485771 -0.012820872253340998
                    CHANNELS 3 Yrotation Xrotation Zrotation
                    JOINT leftIndexDistal
                    {
                      OFFSET 0.2045908926985518 -0.0071133989147997845 -0.006828784783599051
                      CHANNELS 3 Yrotation Xrotation Zrotation
                      End Site
                      {
                        OFFSET 0.2045908926985518 -0.0071133989147997845 -0.006828784783599051
                      }
                    }
                  }
                }
                JOINT leftLittleProximal
                {
                  OFFSET 0.6110054258835662 0.07380246363125398 -0.29175655876064077
                  CHANNELS 3 Yrotation Xrotation Zrotation
                  JOINT leftLittleIntermediate
                  {
                    OFFSET 0.3144281999999998 -2.5124724523095665e-9 1.8658118799974588e-7
                    CHANNELS 3 Yrotation Xrotation Zrotation
                    JOINT leftLittleDistal
                    {
                      OFFSET 0.18116185580251631 0.002815456192251098 0.0034826415518049436
                      CHANNELS 3 Yrotation Xrotation Zrotation
                      End Site
                      {
                        OFFSET 0.18116185580251631 0.002815456192251098 0.0034826415518049436
                      }
                    }
                  }
                }
                JOINT leftMiddleProximal
                {
                  OFFSET 0.6637478005691111 0.07380246480054087 0.02046981859247815
                  CHANNELS 3 Yrotation Xrotation Zrotation
                  JOINT leftMiddleIntermediate
                  {
                    OFFSET 0.3705733999999994 -2.9611069152224445e-9 9.35054791928458e-8
                    CHANNELS 3 Yrotation Xrotation Zrotation
                    JOINT leftMiddleDistal
                    {
                      OFFSET 0.22861063500000056 -1.82673876025774e-9 -1.6740782024515788e-7
                      CHANNELS 3 Yrotation Xrotation Zrotation
                      End Site
                      {
                        OFFSET 0.22861063500000056 -1.82673876025774e-9 -1.6740782024515788e-7
                      }
                    }
                  }
                }
                JOINT leftRingProximal
                {
                  OFFSET 0.6561845547265777 0.07380246406440083 -0.13588087571513918
                  CHANNELS 3 Yrotation Xrotation Zrotation
                  JOINT leftRingIntermediate
                  {
                    OFFSET 0.3437531000000005 -2.746796123886952e-9 1.4935781944558357e-7
                    CHANNELS 3 Yrotation Xrotation Zrotation
                    JOINT leftRingDistal
                    {
                      OFFSET 0.1983118991198174 -0.002467117924596085 -0.004538141969590015
                      CHANNELS 3 Yrotation Xrotation Zrotation
                      End Site
                      {
                        OFFSET 0.1983118991198174 -0.002467117924596085 -0.004538141969590015
                      }
                    }
                  }
                }
                JOINT leftThumbProximal
                {
                  OFFSET 0.09767004258864787 -0.14930060425447422 -0.07008212897521154
                  CHANNELS 3 Yrotation Xrotation Zrotation
                  JOINT leftThumbIntermediate
                  {
                    OFFSET 0.36682123028154767 -0.015768465060082004 0.28693641268151077
                    CHANNELS 3 Yrotation Xrotation Zrotation
                    JOINT leftThumbDistal
                    {
                      OFFSET 0.21091084272403915 -0.016756648201192714 0.1933767059105508
                      CHANNELS 3 Yrotation Xrotation Zrotation
                      End Site
                      {
                        OFFSET 0.21091084272403915 -0.016756648201192714 0.1933767059105508
                      }
                    }
                  }
                }
              }
            }
          }
        }
        JOINT rightShoulder
        {
          OFFSET -0.37618174442811925 1.0539491987447769 0
          CHANNELS 3 Yrotation Xrotation Zrotation
          JOINT rightUpperArm
          {
            OFFSET -0.870284438 0 0
            CHANNELS 3 Yrotation Xrotation Zrotation
            JOINT rightLowerArm
            {
              OFFSET -2.1985273100003235 0 0
              CHANNELS 3 Yrotation Xrotation Zrotation
              JOINT rightHand
              {
                OFFSET -2.1468523139682802 0 0
                CHANNELS 3 Yrotation Xrotation Zrotation
                JOINT rightIndexProximal
                {
                  OFFSET -0.6585177834681599 0.07380250427007962 0.18382213159631788
                  CHANNELS 3 Yrotation Xrotation Zrotation
                  JOINT rightIndexIntermediate
                  {
                    OFFSET -0.3323021288626682 -0.009606893929485771 -0.012820872253340998
                    CHANNELS 3 Yrotation Xrotation Zrotation
                    JOINT rightIndexDistal
                    {
                      OFFSET -0.2045908926985518 -0.0071133989147997845 -0.006828784783599051
                      CHANNELS 3 Yrotation Xrotation Zrotation
                      End Site
                      {
                        OFFSET -0.2045908926985518 -0.0071133989147997845 -0.006828784783599051
                      }
                    }
                  }
                }
                JOINT rightLittleProximal
                {
                  OFFSET -0.6110054258835662 0.07380246363125398 -0.29175655876064077
                  CHANNELS 3 Yrotation Xrotation Zrotation
                  JOINT rightLittleIntermediate
                  {
                    OFFSET -0.3144281999999998 -2.5124724523095665e-9 1.8658118799974588e-7
                    CHANNELS 3 Yrotation Xrotation Zrotation
                    JOINT rightLittleDistal
                    {
                      OFFSET -0.18116185580251631 0.002815456192251098 0.0034826415518049436
                      CHANNELS 3 Yrotation Xrotation Zrotation
                      End Site
                      {
                        OFFSET -0.18116185580251631 0.002815456192251098 0.0034826415518049436
                      }
                    }
                  }
                }
                JOINT rightMiddleProximal
                {
                  OFFSET -0.6637478005691111 0.07380246480054087 0.02046981859247815
                  CHANNELS 3 Yrotation Xrotation Zrotation
                  JOINT rightMiddleIntermediate
                  {
                    OFFSET -0.3705733999999994 -2.9611069152224445e-9 9.35054791928458e-8
                    CHANNELS 3 Yrotation Xrotation Zrotation
                    JOINT rightMiddleDistal
                    {
                      OFFSET -0.22861063500000056 -1.82673876025774e-9 -1.6740782024515788e-7
                      CHANNELS 3 Yrotation Xrotation Zrotation
                      End Site
                      {
                        OFFSET -0.22861063500000056 -1.82673876025774e-9 -1.6740782024515788e-7
                      }
                    }
                  }
                }
                JOINT rightRingProximal
                {
                  OFFSET -0.6561845547265777 0.07380246406440083 -0.13588087571513918
                  CHANNELS 3 Yrotation Xrotation Zrotation
                  JOINT rightRingIntermediate
                  {
                    OFFSET -0.3437531000000005 -2.746796123886952e-9 1.4935781944558357e-7
                    CHANNELS 3 Yrotation Xrotation Zrotation
                    JOINT rightRingDistal
                    {
                      OFFSET -0.1983118991198174 -0.002467117924596085 -0.004538141969590015
                      CHANNELS 3 Yrotation Xrotation Zrotation
                      End Site
                      {
                        OFFSET -0.1983118991198174 -0.002467117924596085 -0.004538141969590015
                      }
                    }
                  }
                }
                JOINT rightThumbProximal
                {
                  OFFSET -0.09767004258864787 -0.14930060425447422 -0.07008212897521154
                  CHANNELS 3 Yrotation Xrotation Zrotation
                  JOINT rightThumbIntermediate
                  {
                    OFFSET -0.36682123028154767 -0.015768465060082004 0.28693641268151077
                    CHANNELS 3 Yrotation Xrotation Zrotation
                    JOINT rightThumbDistal
                    {
                      OFFSET -0.21091084272403915 -0.016756648201192714 0.1933767059105508
                      CHANNELS 3 Yrotation Xrotation Zrotation
                      End Site
                      {
                        OFFSET -0.21091084272403915 -0.016756648201192714 0.1933767059105508
                      }
                    }
                  }
                }
              }
            }
          }
        }
      }
    }
  }
  JOINT leftUpperLeg
  {
    OFFSET 0.7715603 -0.3993844658041501 0
    CHANNELS 3 Yrotation Xrotation Zrotation
    JOINT leftLowerLeg
    {
      OFFSET 0 -3.529830000249343 0
      CHANNELS 3 Yrotation Xrotation Zrotation
      JOINT leftFoot
      {
        OFFSET 0 -4.154939295409685 0.004208579085223096
        CHANNELS 3 Yrotation Xrotation Zrotation
        JOINT leftToes
        {
          OFFSET 0 -0.6353414391261847 1.10414981190622
          CHANNELS 3 Yrotation Xrotation Zrotation
          End Site
          {
            OFFSET 0 -0.6015820691747853 1.10414981190622
          }
        }
      }
    }
  }
  JOINT rightUpperLeg
  {
    OFFSET -0.7715603 -0.3993844658041501 0
    CHANNELS 3 Yrotation Xrotation Zrotation
    JOINT rightLowerLeg
    {
      OFFSET 0 -3.529830000249343 0
      CHANNELS 3 Yrotation Xrotation Zrotation
      JOINT rightFoot
      {
        OFFSET 0 -4.154939295409685 0.004208579085223096
        CHANNELS 3 Yrotation Xrotation Zrotation
        JOINT rightToes
        {
          OFFSET 0 -0.6353414391261847 1.10414981190622
          CHANNELS 3 Yrotation Xrotation Zrotation
          End Site
          {
            OFFSET 0 -0.6015820691747853 1.10414981190622
          }
        }
      }
    }
  }
}
MOTION
Frames: 4
Frame Time: 0.03333333333333333
-0.0017777396450665865 9.474299170754172 0.9981440912380747 0.5833449953037596 -6.982197778097829 -0.40799932894289737 0.1804433772276936 3.102688666720237 -0.21472121838537525 0.3083222920095541 6.176851576480812 0.3609155184873122 0 0 0 -0.6546443579075496 -1.755782920404905 3.7874931543569392 0.7520444740529493 -6.250047840785523 -3.197579866321898 0 0 0 0 0 0 -8.52638306097008 -0.6912794596149154 -8.989857019070435 -70.21246643683486 15.486230439530944 -63.683503900483046 -72.21998595575525 4.52681713270541 23.663989908883227 5.802389736397535 -1.6622920614991197 -3.677564567527993 -20.927421118687555 10.547827732028484 -31.396387012167857 -17.480240848786273 -1.956340957931439 -42.06001265805378 -8.476432843727917 0.693332508217489 -20.05403052129724 -17.892285336054154 -4.197774890031907 -32.509063064800515 -17.834219895511612 -3.4175292253214393 -24.319141879602263 -11.544898130384505 -1.3031015496379863 -15.625999728981226 -23.519595056638423 -0.5899282588695525 -40.87358215417921 -15.064874906427638 -0.20197538196776382 -41.850425721869 -8.102306350283317 1.2774388243431811 -22.434150545233482 -18.65177398778089 -2.36337622067738 -38.06445966245177 -25.001079808266056 -2.6549354643090077 -50.34163477087927 -8.98578731280173 1.6330090716617764 -17.850742910604414 -0.39213444165829175 7.329373613998654 3.185416727876321 -0.18461217953673223 1.0800618007351979 -1.6328622500167114 -2.2102582045125496 -0.4448747810865337 1.541310668564815 13.596995005329582 -0.23432691461826108 17.485346332806767 48.874897779593205 15.908781734716584 52.59270727156517 45.26055113358985 6.4483347506827435 -8.77597139278373 -22.255302844972974 -3.3655840887364965 17.084337952640922 16.530383906984326 16.47809000065662 31.476447969755306 9.891621414332102 6.643896262344732 41.76550369611429 4.7210604493175365 4.489048448449142 22.326452851349572 12.411905068855198 3.9991897509545105 28.729990411742317 9.301041824740599 0.6160457874953383 17.563775266643454 5.651605465097921 0.7151324903153068 10.69476993313744 19.361885810915656 5.5858787651255275 44.2721166253391 6.345823547504329 8.206211824066848 38.1821569758713 4.49941128325303 6.803385727965995 29.705910206855258 13.62670609850676 5.100304484015624 40.514412209210995 14.816157299967182 7.233150886325485 43.66496684915065 5.394336310031604 4.350318143555891 17.742158763066996 0.6868473901689899 11.440790199507562 -2.7550707836316723 -6.378284722736679 6.114860511392077 5.70367097795279 -3.6728792782331516 0.7242760068391176 1.8822403799338836 1.0279030462772751 6.000254173001176 3.919819507272957 0.1865984496377022 5.951169098745541 0.08291585722414245 6.02731004607443 -6.263895294545566 -5.83136778853856 -0.47788630315209935 2.0442337447740915 0.17344814999581532 -0.8621784692524421 8.846128243212211 -2.2735252032198128 -0.15975118322699777 0.9337155941097135 0.345166863848523 -3.6608279208872796 -3.9840707373075315 3.7497732037497338 0.3494484029095538 2.0296027724288606 0.06710493021140032
-0.00456782311878421 9.47871988469904 0.9759340323972364 0.3718573688466313 -6.544241948198061 -0.39637337111829163 0.179975156750184 2.7752308416293885 -0.24961970955781698 0.318306978415725 5.5891617555686945 0.3761713896042652 0 0 0 -0.6353822972358201 -0.12409964501139031 3.7409140492607373 1.0321674552703142 -7.6366635536386385 -3.269915819402313 0 0 0 0 0 0 -9.584556742467843 -0.6985794944311083 -7.657753910614895 -73.93242397808878 12.224395360791624 -58.98753284736491 -81.45589181499847 13.718390914208587 26.12774631051646 5.648581329916558 -1.6082599063288543 -3.7057966454520606 -21.5786647678238 10.801722561759043 -32.33042793119981 -17.15480498172036 -1.7904245111541632 -41.218332860758366 -8.432591176511645 0.6970298336965266 -19.95082300032987 -18.07374316092361 -4.179963696188658 -32.97330893451194 -18.318151971176157 -3.625083821728464 -24.998219100966207 -11.769029962926904 -1.3606789540414508 -15.93230973434154 -24.010976645197168 -0.8672305892162905 -42.17315154128213 -14.910703272733885 -0.14144326283428116 -41.40313302870019 -7.816702745643655 1.286887448409095 -21.655733883570743 -19.01467364763088 -2.269557331359745 -39.09821873865909 -25.433624179894636 -2.9206557465713026 -51.3008163021601 -8.879438266897235 1.6301779843724238 -17.64229423538648 -0.7350087091178535 7.308003727674191 3.127802967497897 -0.3828902548799672 1.1870053005770493 -1.802086572979524 -2.687549926609133 -0.5325109852488793 1.8751908294259667 14.243253219647267 -0.16823124275836515 16.045885199500685 54.22331441413346 15.715135262138972 48.47315920560915 59.50907315844792 5.749272767258392 -10.541467254658249 -22.328938745552335 -3.3430237434200154 17.183837689094826 16.344251439083482 16.299935955515792 30.88265580969307 11.339992845606202 6.900600472300995 46.86569833852609 5.354715983567574 4.867155040919911 24.86475355053778 12.522360378388214 4.040274945981265 28.47752541209553 11.738595177276386 0.3038724586159843 22.180299468595575 7.095953999258652 0.7295402118278119 13.415365337203456 18.85990233049543 5.712196760793429 42.68424518359082 7.849844974668683 9.065589863121415 44.55282543059082 5.168787457119629 7.362745776934892 32.890321538332564 13.124806112233827 5.169377061329832 39.712567091267346 17.739092297020495 7.244720382437817 51.36026616334014 6.55075719290183 4.971885240151222 21.138479981821774 1.4124004799165557 10.657151859049153 -1.829355472166582 -6.510252627631331 5.059993586399012 4.700168697167382 -4.5291600202167785 0.9091568208424903 2.3160788828443577 1.1196271745668038 5.369025872000565 3.905819110838315 0.19657228762357243 6.0469470180010765 0.08656637870629474 6.117934594381124 -6.095162804282326 -5.738752967080647 -0.47527803095273435 2.0153446217237234 0.1725737425324474 -0.6644070431626147 8.220621920035816 -2.2443822597009837 -0.1630225792119572 0.9585301731881343 0.35346050009145 -3.603724427835902 -3.755115933318123 3.6644522839266775 0.3444943109856379 2.0007250157133707 0.06641085584621313
-0.006850213235752148 9.48301228609952 0.9572989924174751 0.34752954466109365 -6.132546176586174 -0.36930753403828237 0.10637368989602672 2.424978326030555 -0.2858219651550777 0.18309278817806424 4.9305230870575745 0.3818271571227523 0 0 0 -0.5480782170471069 1.5289610359005084 3.3530798471290875 1.2558496296415955 -8.674026660944287 -2.9249725788263397 0 0 0 0 0 0 -10.890172662788324 -0.7119104722603418 -6.201194231817924 -76.15444546068751 8.461147972322113 -52.92249467685094 -90.2955618500087 18.275082570987717 26.76867842718445 5.927882473223285 -1.6793389236135874 -3.851520371942151 -22.196703081133972 11.04424688345911 -33.58507292079569 -17.486709899255818 -1.958579364521126 -42.07658411929404 -8.708879578652148 0.6704436702587202 -20.602347208174628 -18.395339260395616 -4.21692669997997 -33.18891997350019 -19.148628803681145 -3.99684427648001 -26.16818823146857 -12.45513636054096 -1.5440780515577521 -16.872719198529744 -24.355066015159835 -1.0598670663195127 -43.29932504752942 -15.387539090798315 -0.33238565652011526 -42.7907843021331 -7.827739107773235 1.2865135079841343 -21.685778563509377 -19.17147496812181 -2.06967914869608 -39.43994589311667 -26.019311254555692 -3.2968704680424294 -52.610706793601985 -8.998490612623335 1.6332378692134317 -17.87544819407259 -0.7635403717359671 7.3518162832554 3.130481860730873 -0.580250788911213 1.1419379810920303 -1.7357398270244229 -2.9461391080206294 -0.5791857331908988 2.056330996457055 15.066593646418713 -0.08675230017801652 14.315823230144908 57.88624426862023 14.268333685509118 42.476344948702874 72.88698739623128 6.753065197513817 -11.900719889281847 -22.499260766908105 -2.9974372447185655 18.256161026704465 16.933604359983768 16.206797817850298 31.6281050110532 11.833608634362168 6.959921216642377 48.59054894779952 5.597919666195326 5.004269858864325 25.824065622000525 13.289762748090364 3.8522716889166917 29.18636389547597 12.862069966446832 0.09029985397511853 24.307127655398865 7.532924865348397 0.7180822421695275 14.23140325980602 18.56086866649309 5.9183925036492795 42.64942480252483 8.43000922908516 9.34103551705608 46.88875036236235 5.392252226917717 7.538943840644395 33.934676049904496 13.571177654369993 4.993706919739749 40.548682498569825 18.92951529595777 7.136670311366516 54.454871613094475 7.049878108834991 5.211106874895968 22.565029092249976 1.7347148689339706 10.33151546070182 -1.6068936944285035 -6.200418630569416 4.590999863885486 4.268577420782852 -4.77454342993369 0.9639375624840889 2.4399824716412195 1.11274781145631 4.808340782743963 3.8742171327345334 0.20063129966537524 6.08775719280644 0.08957916235133734 6.133013548635874 -5.91286047302406 -5.625323418260013 -0.4700515530653997 2.004362391886922 0.1716197661370159 -0.555624844233527 7.598842268455046 -2.2298875601843045 -0.16597408980748818 1.065013004435948 0.3638977561232762 -3.6678399429442052 -3.550471660116869 3.5564708219943792 0.3442221260375123 1.9413109709977838 0.06594636029957994
-0.007022305561060255 9.486435109918766 0.943364212166579 0.5372556777004464 -5.830215317411288 -0.302330267523797 0.03665905913475687 2.1774797963263315 -0.28804588331233916 0.05362151707568637 4.295978788530218 0.31446328610020174 0 0 0 -0.5487371208518057 3.2817728617148223 3.124883356582725 1.432519138861687 -9.761280257886424 -2.6554236797979014 0 0 0 0 0 0 -12.116694361586589 -0.7220030269983774 -4.800607705556934 -77.63946199944434 4.1964603953340305 -46.41061457677455 -97.81633361510585 19.312359790855442 26.07431065075566 5.975837072836552 -1.71042145209099 -3.73823005153187 -22.482463326181385 11.111919520124006 -34.09696931138272 -17.893563959418483 -2.1748064105779434 -43.13688212718604 -9.098506027654668 0.6269005571347743 -21.522473558480737 -19.22239157926688 -4.517820658664066 -34.15831150804479 -19.399236069417327 -4.113541667707287 -26.520791218528124 -12.471772410219238 -1.546111305709699 -16.89531377118588 -24.708265572427948 -1.2719804725598862 -44.37062970245983 -15.496589707656051 -0.37909510025213633 -43.109443238549 -7.774902840579216 1.287860248863701 -21.5417974360761 -19.83582439200688 -2.1769167530405484 -40.591847698763544 -25.970965865585566 -3.2651331978946314 -52.5010415593263 -8.986876443947807 1.632956329719359 -17.85263696096655 -1.0503644372976295 7.281121954950843 3.3434412110516174 -0.8404138202099628 1.0536893901084736 -1.6022600912634468 -2.996866387363475 -0.5881735545725421 2.0918561024962914 15.917002725304359 0.0018650070405206239 12.558494757687859 60.40153633150554 11.670433183374831 35.27552571100057 83.75405495840097 4.858398382229267 -12.224048822160832 -22.800499360898808 -3.0502470927880476 18.21265330808301 17.518273203300765 15.935308459736836 32.230018420084996 11.934506432249103 6.970774661354537 48.943394560653374 5.6414308053369115 5.031594167537463 25.993928821689906 13.512204153794462 3.5033694014951635 29.493150240718517 13.37888691185601 -0.021519638734093433 25.297243799288072 7.776861948946466 0.7102987970158622 14.691092362813423 18.540207838554686 5.939413867078073 42.68974652532279 8.661462510689917 9.442845901407145 47.82314917359362 5.457454415034603 7.591475310003426 34.252650172396876 13.370646326758207 4.356185554856499 39.96986028195579 19.0228379504379 7.125856861955753 54.70873329963475 7.016454691277647 5.195848958912388 22.471281088288087 1.780446768179232 10.166570878894792 -1.5110127723840012 -6.126023930717146 4.609095402032255 4.287907046308296 -4.904459699308388 0.9931716209243622 2.5055071897390966 0.9703358072187229 4.320364018103912 3.783438384813295 0.2094895436238448 6.204910988562958 0.09371636065368066 6.063691140727222 -5.764389511038178 -5.4946674229340875 -0.4609513233426275 1.9702054158991409 0.16839929183796817 -0.5566656272366215 7.162892105834768 -2.2688635435707365 -0.17244366351009005 1.1457331208698767 0.3796380426608881 -3.906611551355041 -3.444314221913572 3.4276026786463323 0.3463322192345927 1.982977998817123 0.06347877068761361
